<svg version="1.2" xmlns="http://www.w3.org/2000/svg" viewBox="0 0 499 98" width="499" height="98">
	<title>New Project</title>
	<style>
	</style>
	<path id="DUNKIN" fill="#873b5e" aria-label="DUNKIN"  d="m26.18 23.83v51.68q1.5 0.29 3.68 0.59q2.18 0.15 4.09 0.15q4.63 0 8.44-1.48q3.95-1.49 6.67-4.61q2.86-3.12 4.36-8.02q1.64-5.05 1.64-12.03q0-13.36-5.72-20.04q-5.72-6.83-15.26-6.83q-1.9 0-3.95 0.14q-1.9 0.15-3.95 0.45zm7.63 73.36q-2.31 0-5.31-0.15q-3-0.15-6.27-0.59q-3.13-0.45-6.4-1.04q-3.13-0.75-5.85-1.93q-7.49-3.12-7.49-10.84v-69.35q0-3.12 1.49-4.76q1.64-1.78 4.36-2.82q5.86-2.08 12.4-2.67q6.53-0.74 11.71-0.74q10.62 0 19.2 2.82q8.72 2.82 14.85 8.76q6.26 5.79 9.67 14.7q3.4 8.91 3.4 21.09q0 11.88-3.27 20.79q-3.27 8.76-9.39 14.85q-6 5.94-14.44 8.91q-8.45 2.97-18.66 2.97zm132.52-81.38v45.74q0 8.02-2.59 14.7q-2.45 6.53-7.22 11.29q-4.77 4.6-11.58 7.12q-6.81 2.53-15.39 2.53q-8.58 0-15.39-2.53q-6.81-2.52-11.57-7.12q-4.77-4.76-7.36-11.29q-2.45-6.68-2.45-14.7v-56.73q1.5-0.3 4.77-0.74q3.27-0.59 6.26-0.59q3.14 0 5.45 0.59q2.45 0.44 4.09 1.78q1.63 1.34 2.45 3.71q0.82 2.38 0.82 6.24v45.29q0 7.13 3.54 11.14q3.67 4.01 9.39 4.01q5.86 0 9.4-4.01q3.54-4.01 3.54-11.14v-56.28q1.5-0.3 4.77-0.74q3.27-0.59 6.26-0.59q3.14 0 5.45 0.59q2.45 0.44 4.09 1.78q1.63 1.34 2.45 3.71q0.82 2.38 0.82 6.24zm92.06-0.44v76.32q-1.9 2.08-5.58 3.27q-3.54 1.04-8.58 1.04q-5.04 0-9.54-1.63q-4.49-1.64-7.35-7.87l-13.48-30q-2.05-4.6-3.68-8.61q-1.63-4.16-3.54-9.51l-0.82 0.15q0.55 8.02 0.55 16.34q0.13 8.31 0.13 16.33v23.02q-1.5 0.44-4.63 0.89q-2.99 0.45-5.99 0.45q-3 0-5.31-0.45q-2.32-0.45-3.82-1.78q-1.49-1.34-2.31-3.57q-0.82-2.37-0.82-6.08v-74.25q1.91-2.97 5.86-4.46q3.95-1.48 8.44-1.48q5.04 0 9.54 1.78q4.63 1.63 7.35 7.72l13.62 30q2.04 4.6 3.68 8.76q1.63 4.01 3.54 9.35l0.68-0.15q-0.55-8.01-0.68-16.03q-0.14-8.02-0.14-16.04v-24.06q1.5-0.44 4.5-0.89q3.13-0.44 6.12-0.44q6 0 9.13 2.37q3.13 2.23 3.13 9.51zm60.88 70.38l-19.2-24.35v32.82q-1.5 0.44-4.77 0.89q-3.27 0.44-6.4 0.44q-3.13 0-5.58-0.44q-2.32-0.59-3.95-1.93q-1.64-1.34-2.46-3.71q-0.81-2.38-0.81-6.24v-78.41q1.5-0.3 4.76-0.74q3.27-0.59 6.27-0.59q3.13 0 5.45 0.59q2.45 0.44 4.08 1.78q1.64 1.34 2.45 3.71q0.82 2.38 0.82 6.24v23.61l28.33-35.49q9.26 0 13.21 3.86q4.09 3.71 4.09 8.91q0 3.86-1.77 7.28q-1.78 3.41-5.72 7.72l-17.03 18.56q3.41 4.16 7.08 8.62q3.82 4.45 7.36 8.76q3.67 4.16 6.94 8.02q3.41 3.86 5.86 6.68q0 3.27-1.09 5.79q-1.09 2.52-3 4.31q-1.77 1.78-4.08 2.67q-2.32 0.89-4.9 0.89q-5.59 0-9.13-2.97q-3.54-3.12-6.81-7.28zm64.42-69.94v78.41q-1.5 0.44-4.77 0.89q-3.13 0.44-6.26 0.44q-3.13 0-5.59-0.44q-2.31-0.59-3.95-1.93q-1.63-1.34-2.45-3.71q-0.81-2.38-0.81-6.24v-78.41q1.49-0.3 4.76-0.74q3.27-0.59 6.27-0.59q3.13 0 5.45 0.59q2.45 0.44 4.08 1.78q1.64 1.34 2.45 3.71q0.82 2.38 0.82 6.24zm92.47-0.44v76.32q-1.9 2.08-5.58 3.27q-3.54 1.04-8.58 1.04q-5.04 0-9.53-1.63q-4.5-1.64-7.36-7.87l-13.48-30q-2.04-4.6-3.68-8.61q-1.63-4.16-3.54-9.51l-0.82 0.15q0.55 8.02 0.55 16.34q0.14 8.31 0.14 16.33v23.02q-1.5 0.44-4.64 0.89q-2.99 0.44-5.99 0.44q-2.99 0.01-5.31-0.44q-2.31-0.45-3.81-1.78q-1.5-1.34-2.32-3.57q-0.82-2.37-0.82-6.08v-74.25q1.91-2.97 5.86-4.46q3.95-1.48 8.44-1.48q5.04 0 9.54 1.78q4.63 1.63 7.35 7.72l13.62 30q2.05 4.6 3.68 8.76q1.63 4.01 3.54 9.35l0.68-0.15q-0.54-8.01-0.68-16.03q-0.14-8.02-0.14-16.04v-24.06q1.5-0.44 4.5-0.89q3.13-0.44 6.13-0.44q5.99 0 9.12 2.37q3.13 2.23 3.13 9.51z" />
	<path id="." fill="#873b5e" aria-label="."  d="m483.83 84.9q0-3.07 1.74-5.11q1.74-2.05 4.76-2.05q3.01 0 4.75 2.05q1.74 2.04 1.74 5.11q0 3.06-1.74 5.11q-1.74 2.04-4.75 2.04q-3.02 0-4.76-2.04q-1.74-2.05-1.74-5.11z" />
</svg>